<svg width="17" height="16" viewBox="0 0 17 16" fill="none" xmlns="http://www.w3.org/2000/svg">
<path d="M8.77187 3.89743L7.02319 2.14743C6.82834 1.95218 6.51158 1.95218 6.31672 2.14743L4.56805 3.89743C4.37295 4.09268 4.37295 4.40918 4.56805 4.60443C4.7629 4.79968 5.07966 4.79968 5.27451 4.60443L6.17034 3.70793V13.5009C6.17034 13.7769 6.39417 14.0009 6.66996 14.0009C6.94575 14.0009 7.16958 13.7769 7.16958 13.5009V3.70793L8.0654 4.60443C8.16283 4.70218 8.29073 4.75093 8.41863 4.75093C8.54654 4.75093 8.67444 4.70218 8.77187 4.60443C8.96697 4.40918 8.96697 4.09268 8.77187 3.89743Z" fill="white"/>
<path d="M13.2684 11.3974C13.0733 11.2021 12.7571 11.2021 12.562 11.3974L11.6661 12.2939V2.50088C11.6661 2.22488 11.4423 2.00088 11.1665 2.00088C10.8907 2.00088 10.6669 2.22488 10.6669 2.50088V12.2939L9.77108 11.3974C9.57598 11.2021 9.25947 11.2021 9.06462 11.3974C8.86951 11.5926 8.86951 11.9091 9.06462 12.1044L10.8133 13.8544C10.911 13.9521 11.0386 14.0009 11.1665 14.0009C11.2944 14.0009 11.4221 13.9521 11.5197 13.8544L13.2684 12.1044C13.4635 11.9091 13.4635 11.5926 13.2684 11.3974Z" fill="white"/>
</svg>
