<svg width="16" height="13" viewBox="0 0 16 13" fill="none" xmlns="http://www.w3.org/2000/svg">
<g clip-path="url(#clip0_1_3482)">
<path d="M15.5307 11.6605H15.0307V1.15226C15.03 1.0863 15.0174 1.02113 14.9935 0.960459C14.9696 0.899789 14.935 0.844818 14.8914 0.798669C14.8479 0.752521 14.7965 0.716101 14.74 0.691502C14.6835 0.666903 14.6231 0.654606 14.5622 0.655301H12.6875C12.6266 0.654606 12.5662 0.666903 12.5097 0.691502C12.4532 0.716101 12.4018 0.752521 12.3583 0.798669C12.3148 0.844818 12.2801 0.899789 12.2562 0.960459C12.2323 1.02113 12.2197 1.0863 12.2191 1.15226V11.6605H11.2813V4.13581C11.2807 4.06985 11.2681 4.00468 11.2442 3.94401C11.2203 3.88333 11.1856 3.82835 11.1421 3.7822C11.0986 3.73605 11.0471 3.69965 10.9906 3.67505C10.9341 3.65045 10.8737 3.63814 10.8128 3.63883H8.93736C8.87647 3.63814 8.81606 3.65045 8.75957 3.67505C8.70308 3.69965 8.65161 3.73605 8.60811 3.7822C8.56461 3.82835 8.52992 3.88333 8.50603 3.94401C8.48215 4.00468 8.46953 4.06985 8.46889 4.13581V11.6605H7.53115V8.11327C7.53051 8.04731 7.51789 7.98214 7.494 7.92147C7.47011 7.8608 7.43543 7.80581 7.39193 7.75966C7.34843 7.71352 7.29696 7.67711 7.24047 7.65251C7.18397 7.62791 7.12356 7.6156 7.06268 7.6163H5.18719C5.12631 7.6156 5.0659 7.62791 5.0094 7.65251C4.95291 7.67711 4.90144 7.71352 4.85794 7.75966C4.81444 7.80581 4.77976 7.8608 4.75587 7.92147C4.73198 7.98214 4.71936 8.04731 4.71873 8.11327V11.6605H3.78098V6.12892C3.78035 6.06296 3.76772 5.9978 3.74384 5.93713C3.71995 5.87646 3.68527 5.82148 3.64176 5.77533C3.59826 5.72918 3.5468 5.69277 3.4903 5.66817C3.43381 5.64357 3.3734 5.63126 3.31251 5.63196H1.43784C1.37696 5.63126 1.31654 5.64357 1.26005 5.66817C1.20356 5.69277 1.15209 5.72918 1.10859 5.77533C1.06509 5.82148 1.0304 5.87646 1.00651 5.93713C0.982628 5.9978 0.970006 6.06296 0.969371 6.12892V11.6605H0.468484C0.346711 11.6605 0.229926 11.7129 0.143819 11.8062C0.0577126 11.8995 0.00933838 12.026 0.00933838 12.1579C0.00933838 12.2898 0.0577126 12.4163 0.143819 12.5096C0.229926 12.6029 0.346711 12.6553 0.468484 12.6553H15.5307C15.6525 12.6553 15.7693 12.6029 15.8554 12.5096C15.9415 12.4163 15.9899 12.2898 15.9899 12.1579C15.9899 12.026 15.9415 11.8995 15.8554 11.8062C15.7693 11.7129 15.6525 11.6605 15.5307 11.6605ZM13.156 1.65099H14.0937V11.6605H13.156V1.65099ZM9.40582 4.63627H10.3436V11.6605H9.40582V4.63627ZM5.65566 8.61374H6.5934V11.6631H5.65647L5.65566 8.61374ZM1.9063 6.62589H2.84405V11.664H1.9063V6.62589Z" fill="#B6B4C6"/>
</g>
<defs>
<clipPath id="clip0_1_3482">
<rect width="16" height="12" fill="white" transform="translate(0 0.655273)"/>
</clipPath>
</defs>
</svg>
